<?xml version="1.0" encoding="UTF-8" standalone="no"?>
<svg
   style="isolation:isolate"
   viewBox="66.993 897.484 180 180.00001"
   version="1.1"
   id="svg11"
   xml:space="preserve"
   width="180"
   height="180"
   xmlns="http://www.w3.org/2000/svg"
   xmlns:svg="http://www.w3.org/2000/svg"><defs
     id="defs15" /><linearGradient
     id="a"
     x1="0.14773831"
     x2="0.84543866"
     y1="0.85134232"
     y2="0.15443686"
     gradientTransform="matrix(26.301,0,0,26.331,90.673535,911.7572)"
     gradientUnits="userSpaceOnUse"><stop
       offset="0"
       stop-color="#004ba6"
       id="stop4"
       style="stop-color:#0071ff;stop-opacity:1;" /><stop
       offset="1"
       stop-color="#00bfe1"
       id="stop6"
       style="stop-color:#00bfe1;stop-opacity:1;" /></linearGradient><path
     style="isolation:isolate;fill:#ffffff;fill-opacity:1;stroke:none;stroke-width:4.34636;stroke-opacity:0"
     id="rect1"
     width="180"
     height="180"
     x="66.992996"
     y="897.48401"
     d="M 81.992996,897.48401 H 231.993 a 15,15 45 0 1 15,15 V 1062.484 a 15,15 135 0 1 -15,15 H 81.992996 a 15,15 45 0 1 -15,-15 V 912.48401 a 15,15 135 0 1 15,-15 z"
     transform="matrix(0.98888889,0,0,0.98888889,1.7443704,10.972036)" /><path
     style="display:inline;fill:#000000;stroke:none;stroke-opacity:0"
     d="m 81.993,1077.484 h 150 a 15,15 135 0 0 15,-15 v -150 a 15,15 45 0 0 -15,-15 h -150 a 15,15 135 0 0 -15,15 v 150 a 15,15 45 0 0 15,15 z m 60,-8 h -68 v -91 h 14 v 78 h 54 z m 24.52196,0 h -15.31311 c 15.10307,-31.6273 30.20614,-63.2546 45.30921,-94.88188 14.4881,31.65518 28.9762,63.31048 43.4643,94.96568 -5.00984,0 -10.01968,-0.01 -15.02952,-0.01 -3.35696,-7.3584 -6.71391,-14.7169 -10.07087,-22.0753 H 176.2905 c -3.25851,7.3338 -6.51703,14.6677 -9.77554,22.0015 z m 15.61991,-35.0015 h 27.64691 c -4.39103,-10.0052 -8.78205,-20.0105 -13.17308,-30.0157 -4.82461,10.0052 -9.64922,20.0105 -14.47383,30.0157 z"
     id="path1" /></svg>
