<?xml version="1.0" encoding="UTF-8" standalone="no"?>
<svg
   style="isolation:isolate"
   viewBox="66.993 897.484 180 180.00001"
   version="1.1"
   id="svg11"
   sodipodi:docname="scalable.svg"
   xml:space="preserve"
   inkscape:export-filename="216333102-4d10c195-be66-4fa0-97ca-70a71756b25e.png"
   inkscape:export-xdpi="3733.2917"
   inkscape:export-ydpi="3733.2917"
   inkscape:version="1.4 (e7c3feb100, 2024-10-09)"
   width="180"
   height="180"
   xmlns:inkscape="http://www.inkscape.org/namespaces/inkscape"
   xmlns:sodipodi="http://sodipodi.sourceforge.net/DTD/sodipodi-0.dtd"
   xmlns="http://www.w3.org/2000/svg"
   xmlns:svg="http://www.w3.org/2000/svg"><defs
     id="defs15" /><sodipodi:namedview
     id="namedview13"
     pagecolor="#ffffff"
     bordercolor="#000000"
     borderopacity="0.25"
     inkscape:showpageshadow="2"
     inkscape:pageopacity="0.0"
     inkscape:pagecheckerboard="true"
     inkscape:deskcolor="#d1d1d1"
     showgrid="false"
     inkscape:zoom="1.3036863"
     inkscape:cx="43.338648"
     inkscape:cy="-17.258754"
     inkscape:window-width="1906"
     inkscape:window-height="1149"
     inkscape:window-x="0"
     inkscape:window-y="0"
     inkscape:window-maximized="1"
     inkscape:current-layer="svg11"
     showguides="true" /><linearGradient
     id="a"
     x1="0.14773831"
     x2="0.84543866"
     y1="0.85134232"
     y2="0.15443686"
     gradientTransform="matrix(26.301,0,0,26.331,90.673535,911.7572)"
     gradientUnits="userSpaceOnUse"><stop
       offset="0"
       stop-color="#004ba6"
       id="stop4"
       style="stop-color:#0071ff;stop-opacity:1;" /><stop
       offset="1"
       stop-color="#00bfe1"
       id="stop6"
       style="stop-color:#00bfe1;stop-opacity:1;" /></linearGradient><rect
     style="isolation:isolate;fill:#ffffff;fill-opacity:1;stroke:none;stroke-width:4.34636;stroke-opacity:0"
     id="rect1"
     width="180"
     height="180"
     x="66.992996"
     y="897.48401"
     inkscape:label="Bg" /><path
     style="display:inline;fill:#000000;stroke:none;stroke-opacity:0"
     d="m 66.993,1077.484 h 180 v -180 h -180 z m 75,-8 h -68 v -91 h 14 v 78 h 54 z m 24.52196,0 h -15.31311 c 15.10307,-31.6273 30.20614,-63.2546 45.30921,-94.88188 14.4881,31.65518 28.9762,63.31048 43.4643,94.96568 -5.00984,0 -10.01968,-0.01 -15.02952,-0.01 -3.35696,-7.3584 -6.71391,-14.7169 -10.07087,-22.0753 H 176.2905 c -3.25851,7.3338 -6.51703,14.6677 -9.77554,22.0015 z m 15.61991,-35.0015 h 27.64691 c -4.39103,-10.0052 -8.78205,-20.0105 -13.17308,-30.0157 -4.82461,10.0052 -9.64922,20.0105 -14.47383,30.0157 z"
     id="path1"
     inkscape:label="Icon"
     sodipodi:nodetypes="cccccccccccccccccccccccc" /></svg>
